<svg width="40" height="40" viewBox="0 0 40 40" fill="none" xmlns="http://www.w3.org/2000/svg">
<path fill-rule="evenodd" clip-rule="evenodd" d="M20.0001 0C8.96631 0 0 8.96685 0 20.0118C0 31.0577 8.96631 40 20.0001 40C31.0455 40 40.0005 31.0577 40.0005 20.0118C40.0005 8.96685 31.0455 0 20.0001 0ZM20.0001 33.2335C12.7041 33.2335 6.77888 27.3194 6.77888 20.0118C6.77888 12.7041 12.7041 6.77927 20.0001 6.77927C27.3072 6.77927 33.2329 12.704 33.2329 20.0117C33.2329 27.3194 27.3072 33.2335 20.0001 33.2335Z" fill="white"/>
<path fill-rule="evenodd" clip-rule="evenodd" d="M20.0001 0C8.96631 0 0 8.96685 0 20.0118C0 31.0577 8.96631 40 20.0001 40C31.0455 40 40.0005 31.0577 40.0005 20.0118C40.0005 8.96685 31.0455 0 20.0001 0ZM20.0001 33.2335C12.7041 33.2335 6.77888 27.3194 6.77888 20.0118C6.77888 12.7041 12.7041 6.77927 20.0001 6.77927C27.3072 6.77927 33.2329 12.704 33.2329 20.0117C33.2329 27.3194 27.3072 33.2335 20.0001 33.2335Z" fill="url(#paint0_linear_111_2108)"/>
<defs>
<linearGradient id="paint0_linear_111_2108" x1="-1.74799" y1="20" x2="42.2333" y2="32.7642" gradientUnits="userSpaceOnUse">
<stop stop-color="#4198FF"/>
<stop offset="1" stop-color="#001D67"/>
</linearGradient>
</defs>
</svg>
