<svg width="18" height="22" viewBox="0 0 18 22" fill="none" xmlns="http://www.w3.org/2000/svg">
    <path d="M14.1116 7.76527C15.7309 8.8379 16.5405 9.37421 16.8181 10.061C17.0606 10.6606 17.0606 11.3394 16.8181 11.9392C16.5405 12.6258 15.7309 13.1621 14.1116 14.2348L6.50638 19.2729C4.70922 20.4634 3.81063 21.0587 3.06909 20.9954C2.42272 20.9404 1.83021 20.5924 1.44357 20.0406C1 19.4076 1 18.2845 1 16.0382V5.96192C1 3.71563 1 2.5925 1.44357 1.95948C1.83021 1.40771 2.42272 1.05964 3.06909 1.00455C3.81063 0.941375 4.70922 1.53664 6.50638 2.72717L14.1116 7.76527Z" stroke="white" stroke-width="2" stroke-linejoin="round"/>
</svg>