<svg width="19" height="19" viewBox="0 0 19 19" fill="none" xmlns="http://www.w3.org/2000/svg">
<path fill-rule="evenodd" clip-rule="evenodd" d="M2.37683 8.31889C2.37683 6.74296 3.00286 5.23157 4.11722 4.11722C5.23157 3.00286 6.74296 2.37683 8.31889 2.37683C9.89482 2.37683 11.4062 3.00286 12.5206 4.11722C13.6349 5.23157 14.261 6.74296 14.261 8.31889C14.261 9.89482 13.6349 11.4062 12.5206 12.5206C11.4062 13.6349 9.89482 14.261 8.31889 14.261C6.74296 14.261 5.23157 13.6349 4.11722 12.5206C3.00286 11.4062 2.37683 9.89482 2.37683 8.31889ZM8.31889 0C7.00075 0 5.70147 0.313233 4.52813 0.913885C3.3548 1.51454 2.34099 2.38542 1.57026 3.45475C0.799524 4.52408 0.293932 5.76126 0.0951444 7.06433C-0.103643 8.3674 0.0100655 9.69905 0.426899 10.9496C0.843733 12.2001 1.55176 13.3336 2.49263 14.2568C3.4335 15.18 4.58028 15.8664 5.83847 16.2594C7.09665 16.6524 8.43022 16.7408 9.72929 16.5173C11.0283 16.2939 12.2557 15.7649 13.3102 14.974C13.344 15.019 13.3809 15.0614 13.4207 15.1012L16.986 18.6664C17.2101 18.8829 17.5103 19.0027 17.8219 19C18.1335 18.9972 18.4316 18.8723 18.6519 18.6519C18.8723 18.4316 18.9972 18.1335 19 17.8219C19.0027 17.5103 18.8829 17.2101 18.6664 16.986L15.1012 13.4207C15.0614 13.3809 15.019 13.344 14.974 13.3102C15.9009 12.0743 16.4654 10.6046 16.6042 9.06597C16.7429 7.5273 16.4504 5.98038 15.7595 4.59857C15.0686 3.21675 14.0066 2.05463 12.6924 1.24242C11.3782 0.430208 9.86381 0 8.31889 0Z" fill="white" fill-opacity="0.5"/>
</svg>
